<mxfile host="app.diagrams.net" agent="Mozilla/5.0 (Windows NT 10.0; Win64; x64) AppleWebKit/537.36 (KHTML, like Gecko) Chrome/128.0.0.0 Safari/537.36 Edg/128.0.0.0" version="24.7.10">
  <diagram name="Página-1" id="fbbnylIOOsnhvvVSLq8d">
    <mxGraphModel dx="792" dy="416" grid="1" gridSize="10" guides="1" tooltips="1" connect="1" arrows="1" fold="1" page="1" pageScale="1" pageWidth="827" pageHeight="1169" math="0" shadow="0">
      <root>
        <mxCell id="0" />
        <mxCell id="1" parent="0" />
        <mxCell id="_3FXy8v_Ba7L8xU-mx0Z-1" value="&amp;lt;&amp;lt;interface&amp;gt;&amp;gt;&lt;div&gt;ReprodutorMusical&lt;/div&gt;" style="swimlane;fontStyle=0;childLayout=stackLayout;horizontal=1;startSize=30;horizontalStack=0;resizeParent=1;resizeParentMax=0;resizeLast=0;collapsible=1;marginBottom=0;whiteSpace=wrap;html=1;" vertex="1" parent="1">
          <mxGeometry x="350" y="80" width="230" height="120" as="geometry" />
        </mxCell>
        <mxCell id="_3FXy8v_Ba7L8xU-mx0Z-2" value="&lt;div style=&quot;font-size: 10px;&quot;&gt;&lt;span style=&quot;font-size: 10px;&quot;&gt;+&amp;nbsp;&lt;/span&gt;&lt;span style=&quot;font-size: 10px; font-family: Consolas, &amp;quot;Courier New&amp;quot;, monospace; white-space: pre;&quot;&gt;selecionarMusica&lt;/span&gt;&lt;span style=&quot;font-size: 10px; font-family: Consolas, &amp;quot;Courier New&amp;quot;, monospace; white-space: pre;&quot;&gt;(&lt;/span&gt;&lt;span style=&quot;font-size: 10px; font-family: Consolas, &amp;quot;Courier New&amp;quot;, monospace; white-space: pre;&quot;&gt;String&lt;/span&gt;&lt;span style=&quot;font-size: 10px; font-family: Consolas, &amp;quot;Courier New&amp;quot;, monospace; white-space: pre;&quot;&gt; &lt;/span&gt;&lt;span style=&quot;font-size: 10px; font-family: Consolas, &amp;quot;Courier New&amp;quot;, monospace; white-space: pre; font-style: italic;&quot;&gt;musica&lt;/span&gt;&lt;span style=&quot;font-size: 10px; font-family: Consolas, &amp;quot;Courier New&amp;quot;, monospace; white-space: pre;&quot;&gt;): void&lt;/span&gt;&lt;/div&gt;" style="text;strokeColor=none;fillColor=none;align=left;verticalAlign=middle;spacingLeft=4;spacingRight=4;overflow=hidden;points=[[0,0.5],[1,0.5]];portConstraint=eastwest;rotatable=0;whiteSpace=wrap;html=1;fontSize=10;" vertex="1" parent="_3FXy8v_Ba7L8xU-mx0Z-1">
          <mxGeometry y="30" width="230" height="30" as="geometry" />
        </mxCell>
        <mxCell id="_3FXy8v_Ba7L8xU-mx0Z-12" value="" style="endArrow=none;html=1;rounded=0;exitX=0;exitY=0.171;exitDx=0;exitDy=0;exitPerimeter=0;entryX=0.998;entryY=0.244;entryDx=0;entryDy=0;entryPerimeter=0;" edge="1" parent="_3FXy8v_Ba7L8xU-mx0Z-1" source="_3FXy8v_Ba7L8xU-mx0Z-2" target="_3FXy8v_Ba7L8xU-mx0Z-2">
          <mxGeometry width="50" height="50" relative="1" as="geometry">
            <mxPoint x="96" y="85" as="sourcePoint" />
            <mxPoint x="146" y="35" as="targetPoint" />
          </mxGeometry>
        </mxCell>
        <mxCell id="_3FXy8v_Ba7L8xU-mx0Z-3" value="&lt;div style=&quot;font-size: 10px;&quot;&gt;&lt;span style=&quot;background-color: initial; font-size: 10px;&quot;&gt;+ tocar() : void&lt;/span&gt;&lt;/div&gt;" style="text;strokeColor=none;fillColor=none;align=left;verticalAlign=middle;spacingLeft=4;spacingRight=4;overflow=hidden;points=[[0,0.5],[1,0.5]];portConstraint=eastwest;rotatable=0;whiteSpace=wrap;html=1;fontSize=10;" vertex="1" parent="_3FXy8v_Ba7L8xU-mx0Z-1">
          <mxGeometry y="60" width="230" height="30" as="geometry" />
        </mxCell>
        <mxCell id="_3FXy8v_Ba7L8xU-mx0Z-4" value="&lt;div style=&quot;font-size: 10px;&quot;&gt;&lt;span style=&quot;background-color: initial; font-size: 10px;&quot;&gt;+ pausar() : void&lt;/span&gt;&lt;/div&gt;" style="text;strokeColor=none;fillColor=none;align=left;verticalAlign=middle;spacingLeft=4;spacingRight=4;overflow=hidden;points=[[0,0.5],[1,0.5]];portConstraint=eastwest;rotatable=0;whiteSpace=wrap;html=1;fontSize=10;" vertex="1" parent="_3FXy8v_Ba7L8xU-mx0Z-1">
          <mxGeometry y="90" width="230" height="30" as="geometry" />
        </mxCell>
        <mxCell id="_3FXy8v_Ba7L8xU-mx0Z-13" value="&amp;lt;&amp;lt;interface&amp;gt;&amp;gt;&lt;div&gt;AparelhoTelefônico&lt;/div&gt;" style="swimlane;fontStyle=0;childLayout=stackLayout;horizontal=1;startSize=30;horizontalStack=0;resizeParent=1;resizeParentMax=0;resizeLast=0;collapsible=1;marginBottom=0;whiteSpace=wrap;html=1;" vertex="1" parent="1">
          <mxGeometry x="620" y="80" width="146" height="120" as="geometry" />
        </mxCell>
        <mxCell id="_3FXy8v_Ba7L8xU-mx0Z-14" value="&lt;div style=&quot;font-size: 10px;&quot;&gt;&lt;span style=&quot;font-size: 10px;&quot;&gt;+ ligar(int número) : void&lt;/span&gt;&lt;/div&gt;" style="text;strokeColor=none;fillColor=none;align=left;verticalAlign=middle;spacingLeft=4;spacingRight=4;overflow=hidden;points=[[0,0.5],[1,0.5]];portConstraint=eastwest;rotatable=0;whiteSpace=wrap;html=1;fontSize=10;" vertex="1" parent="_3FXy8v_Ba7L8xU-mx0Z-13">
          <mxGeometry y="30" width="146" height="30" as="geometry" />
        </mxCell>
        <mxCell id="_3FXy8v_Ba7L8xU-mx0Z-15" value="" style="endArrow=none;html=1;rounded=0;exitX=0;exitY=0.171;exitDx=0;exitDy=0;exitPerimeter=0;" edge="1" parent="_3FXy8v_Ba7L8xU-mx0Z-13" source="_3FXy8v_Ba7L8xU-mx0Z-14">
          <mxGeometry width="50" height="50" relative="1" as="geometry">
            <mxPoint x="96" y="85" as="sourcePoint" />
            <mxPoint x="146" y="35" as="targetPoint" />
          </mxGeometry>
        </mxCell>
        <mxCell id="_3FXy8v_Ba7L8xU-mx0Z-16" value="&lt;div style=&quot;font-size: 10px;&quot;&gt;&lt;span style=&quot;background-color: initial; font-size: 10px;&quot;&gt;+ iniciarCorreioVoz() : void&lt;/span&gt;&lt;/div&gt;" style="text;strokeColor=none;fillColor=none;align=left;verticalAlign=middle;spacingLeft=4;spacingRight=4;overflow=hidden;points=[[0,0.5],[1,0.5]];portConstraint=eastwest;rotatable=0;whiteSpace=wrap;html=1;fontSize=10;" vertex="1" parent="_3FXy8v_Ba7L8xU-mx0Z-13">
          <mxGeometry y="60" width="146" height="30" as="geometry" />
        </mxCell>
        <mxCell id="_3FXy8v_Ba7L8xU-mx0Z-17" value="&lt;div style=&quot;font-size: 10px;&quot;&gt;&lt;span style=&quot;background-color: initial; font-size: 10px;&quot;&gt;+ atender() : void&lt;/span&gt;&lt;/div&gt;" style="text;strokeColor=none;fillColor=none;align=left;verticalAlign=middle;spacingLeft=4;spacingRight=4;overflow=hidden;points=[[0,0.5],[1,0.5]];portConstraint=eastwest;rotatable=0;whiteSpace=wrap;html=1;fontSize=10;" vertex="1" parent="_3FXy8v_Ba7L8xU-mx0Z-13">
          <mxGeometry y="90" width="146" height="30" as="geometry" />
        </mxCell>
        <mxCell id="_3FXy8v_Ba7L8xU-mx0Z-18" value="&amp;lt;&amp;lt;interface&amp;gt;&amp;gt;&lt;div&gt;NavegadorInternet&lt;/div&gt;" style="swimlane;fontStyle=0;childLayout=stackLayout;horizontal=1;startSize=30;horizontalStack=0;resizeParent=1;resizeParentMax=0;resizeLast=0;collapsible=1;marginBottom=0;whiteSpace=wrap;html=1;" vertex="1" parent="1">
          <mxGeometry x="150" y="80" width="166" height="120" as="geometry" />
        </mxCell>
        <mxCell id="_3FXy8v_Ba7L8xU-mx0Z-19" value="&lt;div style=&quot;font-size: 10px;&quot;&gt;&lt;span style=&quot;font-size: 10px;&quot;&gt;+ exibirPágina(String url) : void&lt;/span&gt;&lt;/div&gt;" style="text;strokeColor=none;fillColor=none;align=left;verticalAlign=middle;spacingLeft=4;spacingRight=4;overflow=hidden;points=[[0,0.5],[1,0.5]];portConstraint=eastwest;rotatable=0;whiteSpace=wrap;html=1;fontSize=10;" vertex="1" parent="_3FXy8v_Ba7L8xU-mx0Z-18">
          <mxGeometry y="30" width="166" height="30" as="geometry" />
        </mxCell>
        <mxCell id="_3FXy8v_Ba7L8xU-mx0Z-20" value="" style="endArrow=none;html=1;rounded=0;exitX=0;exitY=0.171;exitDx=0;exitDy=0;exitPerimeter=0;entryX=1.015;entryY=0.213;entryDx=0;entryDy=0;entryPerimeter=0;" edge="1" parent="_3FXy8v_Ba7L8xU-mx0Z-18" source="_3FXy8v_Ba7L8xU-mx0Z-19" target="_3FXy8v_Ba7L8xU-mx0Z-19">
          <mxGeometry width="50" height="50" relative="1" as="geometry">
            <mxPoint x="96" y="85" as="sourcePoint" />
            <mxPoint x="146" y="35" as="targetPoint" />
          </mxGeometry>
        </mxCell>
        <mxCell id="_3FXy8v_Ba7L8xU-mx0Z-21" value="&lt;div style=&quot;font-size: 10px;&quot;&gt;&lt;span style=&quot;background-color: initial; font-size: 10px;&quot;&gt;+ adicionarNovaAba() : void&lt;/span&gt;&lt;/div&gt;" style="text;strokeColor=none;fillColor=none;align=left;verticalAlign=middle;spacingLeft=4;spacingRight=4;overflow=hidden;points=[[0,0.5],[1,0.5]];portConstraint=eastwest;rotatable=0;whiteSpace=wrap;html=1;fontSize=10;" vertex="1" parent="_3FXy8v_Ba7L8xU-mx0Z-18">
          <mxGeometry y="60" width="166" height="30" as="geometry" />
        </mxCell>
        <mxCell id="_3FXy8v_Ba7L8xU-mx0Z-22" value="&lt;div style=&quot;font-size: 10px;&quot;&gt;&lt;span style=&quot;background-color: initial; font-size: 10px;&quot;&gt;+ atualizarPágina() : void&lt;/span&gt;&lt;/div&gt;" style="text;strokeColor=none;fillColor=none;align=left;verticalAlign=middle;spacingLeft=4;spacingRight=4;overflow=hidden;points=[[0,0.5],[1,0.5]];portConstraint=eastwest;rotatable=0;whiteSpace=wrap;html=1;fontSize=10;" vertex="1" parent="_3FXy8v_Ba7L8xU-mx0Z-18">
          <mxGeometry y="90" width="166" height="30" as="geometry" />
        </mxCell>
        <mxCell id="_3FXy8v_Ba7L8xU-mx0Z-25" style="edgeStyle=orthogonalEdgeStyle;rounded=0;orthogonalLoop=1;jettySize=auto;html=1;exitX=0.5;exitY=0;exitDx=0;exitDy=0;" edge="1" parent="1" source="_3FXy8v_Ba7L8xU-mx0Z-23">
          <mxGeometry relative="1" as="geometry">
            <mxPoint x="234.66666666666652" y="210" as="targetPoint" />
          </mxGeometry>
        </mxCell>
        <mxCell id="_3FXy8v_Ba7L8xU-mx0Z-23" value="Safari" style="swimlane;whiteSpace=wrap;html=1;" vertex="1" parent="1">
          <mxGeometry x="190" y="270" width="90" height="30" as="geometry" />
        </mxCell>
        <mxCell id="_3FXy8v_Ba7L8xU-mx0Z-28" style="edgeStyle=orthogonalEdgeStyle;rounded=0;orthogonalLoop=1;jettySize=auto;html=1;exitX=0.5;exitY=0;exitDx=0;exitDy=0;" edge="1" parent="1" source="_3FXy8v_Ba7L8xU-mx0Z-26">
          <mxGeometry relative="1" as="geometry">
            <mxPoint x="443.2380952380952" y="220" as="targetPoint" />
          </mxGeometry>
        </mxCell>
        <mxCell id="_3FXy8v_Ba7L8xU-mx0Z-26" value="IPod" style="swimlane;whiteSpace=wrap;html=1;" vertex="1" parent="1">
          <mxGeometry x="398" y="270" width="90" height="30" as="geometry" />
        </mxCell>
        <mxCell id="_3FXy8v_Ba7L8xU-mx0Z-37" style="edgeStyle=orthogonalEdgeStyle;rounded=0;orthogonalLoop=1;jettySize=auto;html=1;exitX=0.5;exitY=0;exitDx=0;exitDy=0;" edge="1" parent="1" source="_3FXy8v_Ba7L8xU-mx0Z-27">
          <mxGeometry relative="1" as="geometry">
            <mxPoint x="692.7619047619046" y="220" as="targetPoint" />
          </mxGeometry>
        </mxCell>
        <mxCell id="_3FXy8v_Ba7L8xU-mx0Z-27" value="Phone" style="swimlane;whiteSpace=wrap;html=1;" vertex="1" parent="1">
          <mxGeometry x="648" y="270" width="90" height="30" as="geometry" />
        </mxCell>
        <mxCell id="_3FXy8v_Ba7L8xU-mx0Z-34" style="edgeStyle=orthogonalEdgeStyle;rounded=0;orthogonalLoop=1;jettySize=auto;html=1;exitX=0.5;exitY=0;exitDx=0;exitDy=0;" edge="1" parent="1" source="_3FXy8v_Ba7L8xU-mx0Z-30">
          <mxGeometry relative="1" as="geometry">
            <mxPoint x="440.3809523809523" y="320" as="targetPoint" />
          </mxGeometry>
        </mxCell>
        <mxCell id="_3FXy8v_Ba7L8xU-mx0Z-35" style="edgeStyle=orthogonalEdgeStyle;rounded=0;orthogonalLoop=1;jettySize=auto;html=1;exitX=0.75;exitY=0;exitDx=0;exitDy=0;" edge="1" parent="1" source="_3FXy8v_Ba7L8xU-mx0Z-30">
          <mxGeometry relative="1" as="geometry">
            <mxPoint x="680" y="320" as="targetPoint" />
          </mxGeometry>
        </mxCell>
        <mxCell id="_3FXy8v_Ba7L8xU-mx0Z-36" style="edgeStyle=orthogonalEdgeStyle;rounded=0;orthogonalLoop=1;jettySize=auto;html=1;exitX=0.25;exitY=0;exitDx=0;exitDy=0;" edge="1" parent="1" source="_3FXy8v_Ba7L8xU-mx0Z-30">
          <mxGeometry relative="1" as="geometry">
            <mxPoint x="240" y="320" as="targetPoint" />
          </mxGeometry>
        </mxCell>
        <mxCell id="_3FXy8v_Ba7L8xU-mx0Z-30" value="Iphone" style="swimlane;fontStyle=0;childLayout=stackLayout;horizontal=1;startSize=30;horizontalStack=0;resizeParent=1;resizeParentMax=0;resizeLast=0;collapsible=1;marginBottom=0;whiteSpace=wrap;html=1;" vertex="1" parent="1">
          <mxGeometry x="280" y="400" width="320" height="120" as="geometry" />
        </mxCell>
        <mxCell id="_3FXy8v_Ba7L8xU-mx0Z-31" value="iPod : IPod" style="text;strokeColor=none;fillColor=none;align=left;verticalAlign=middle;spacingLeft=4;spacingRight=4;overflow=hidden;points=[[0,0.5],[1,0.5]];portConstraint=eastwest;rotatable=0;whiteSpace=wrap;html=1;" vertex="1" parent="_3FXy8v_Ba7L8xU-mx0Z-30">
          <mxGeometry y="30" width="320" height="30" as="geometry" />
        </mxCell>
        <mxCell id="_3FXy8v_Ba7L8xU-mx0Z-32" value="safari : Safari" style="text;strokeColor=none;fillColor=none;align=left;verticalAlign=middle;spacingLeft=4;spacingRight=4;overflow=hidden;points=[[0,0.5],[1,0.5]];portConstraint=eastwest;rotatable=0;whiteSpace=wrap;html=1;" vertex="1" parent="_3FXy8v_Ba7L8xU-mx0Z-30">
          <mxGeometry y="60" width="320" height="30" as="geometry" />
        </mxCell>
        <mxCell id="_3FXy8v_Ba7L8xU-mx0Z-33" value="phone: Phone" style="text;strokeColor=none;fillColor=none;align=left;verticalAlign=middle;spacingLeft=4;spacingRight=4;overflow=hidden;points=[[0,0.5],[1,0.5]];portConstraint=eastwest;rotatable=0;whiteSpace=wrap;html=1;" vertex="1" parent="_3FXy8v_Ba7L8xU-mx0Z-30">
          <mxGeometry y="90" width="320" height="30" as="geometry" />
        </mxCell>
      </root>
    </mxGraphModel>
  </diagram>
</mxfile>
